<svg width="38" height="38" viewBox="0 0 38 38" fill="none" xmlns="http://www.w3.org/2000/svg">
	<path fill-rule="evenodd" clip-rule="evenodd"
		d="M36.4386 16.001C36.9067 16.4691 37.7076 16.1454 37.7188 15.4834L37.9692 0.762758C37.9764 0.338607 37.6307 -0.00710394 37.2066 0.000110915L22.4859 0.250511C21.824 0.261771 21.5002 1.0626 21.9683 1.53073L25.2101 4.77248C25.503 5.06538 25.503 5.54025 25.2101 5.83315L11.8787 19.1646C10.7071 20.3361 10.7071 22.2356 11.8787 23.4072L14.7071 26.2356C15.8787 27.4072 17.7782 27.4072 18.9497 26.2356L32.2812 12.9042C32.5741 12.6113 33.0489 12.6113 33.3418 12.9042L36.4386 16.001Z"
		fill="white" />
	<path fill-rule="evenodd" clip-rule="evenodd"
		d="M32.496 12.7539C32.3705 8.85901 29.2752 5.71442 25.4006 5.51051C25.3667 5.62865 25.3032 5.74009 25.2101 5.83315L22.5433 8.5H25C27.4853 8.5 29.5 10.5147 29.5 13V15.6854L32.2812 12.9042C32.3453 12.8401 32.4182 12.7899 32.496 12.7539ZM29.5 19.928L32.5 16.928V30C32.5 34.1421 29.1421 37.5 25 37.5H8C3.85786 37.5 0.5 34.1421 0.5 30V13C0.5 8.85786 3.85786 5.5 8 5.5H21.3006L18.3006 8.5H8C5.51472 8.5 3.5 10.5147 3.5 13V30C3.5 32.4853 5.51472 34.5 8 34.5H25C27.4853 34.5 29.5 32.4853 29.5 30V19.928Z"
		fill="white" />
</svg>